<svg width="56" height="60" viewBox="0 0 56 60" fill="none" xmlns="http://www.w3.org/2000/svg" aria-label="Peptify UK">
<defs>
<linearGradient id="ppGrad" x1="0%" y1="0%" x2="100%" y2="100%">
<stop offset="0%" stop-color="#7C3AED"/>
<stop offset="50%" stop-color="#6366F1"/>
<stop offset="100%" stop-color="#06B6D4"/>
</linearGradient>
</defs>
<!-- Double helix-inspired peptide chain -->
<path d="M14 6 Q28 0 42 6 Q50 10 50 18 Q50 26 42 30 Q28 36 14 30 Q6 26 6 18 Q6 10 14 6Z" stroke="url(#ppGrad)" stroke-width="2.2" fill="none" stroke-linecap="round"/>
<path d="M14 30 Q28 24 42 30 Q50 34 50 42 Q50 50 42 54 Q28 60 14 54 Q6 50 6 42 Q6 34 14 30Z" stroke="url(#ppGrad)" stroke-width="2.2" fill="none" stroke-linecap="round"/>
<!-- Nodes on the helix -->
<circle cx="14" cy="6" r="3.5" fill="#7C3AED"/>
<circle cx="28" cy="3" r="3.5" fill="#7C3AED"/>
<circle cx="42" cy="6" r="3.5" fill="#6366F1"/>
<circle cx="50" cy="18" r="3.5" fill="#06B6D4"/>
<circle cx="42" cy="30" r="3.5" fill="#6366F1"/>
<circle cx="28" cy="35" r="3.5" fill="#6366F1"/>
<circle cx="14" cy="30" r="3.5" fill="#7C3AED"/>
<circle cx="14" cy="54" r="3.5" fill="#7C3AED"/>
<circle cx="28" cy="57" r="3.5" fill="#7C3AED"/>
<circle cx="42" cy="54" r="3.5" fill="#6366F1"/>
<circle cx="50" cy="42" r="3.5" fill="#06B6D4"/>
<circle cx="14" cy="18" r="2.5" fill="#06B6D4" opacity="0.7"/>
<circle cx="14" cy="42" r="2.5" fill="#06B6D4" opacity="0.7"/>
<!-- Cross-links -->
<line x1="20" y1="14" x2="36" y2="10" stroke="#6366F1" stroke-width="1" opacity="0.5"/>
<line x1="20" y1="46" x2="36" y2="50" stroke="#6366F1" stroke-width="1" opacity="0.5"/>
</svg>
