<svg width="56" height="60" viewBox="0 0 56 60" fill="none" xmlns="http://www.w3.org/2000/svg" aria-label="Regen Peptides">
<defs>
<linearGradient id="rgGrad" x1="0%" y1="0%" x2="100%" y2="100%">
<stop offset="0%" stop-color="#059669"/>
<stop offset="50%" stop-color="#10B981"/>
<stop offset="100%" stop-color="#34D399"/>
</linearGradient>
<linearGradient id="rgGrad2" x1="0%" y1="0%" x2="100%" y2="0%">
<stop offset="0%" stop-color="#047857"/>
<stop offset="100%" stop-color="#10B981"/>
</linearGradient>
</defs>
<!-- Leaf/regen inspired DNA helix -->
<path d="M12 4 Q26 0 40 4 Q48 8 48 16 Q48 24 40 28 Q26 32 12 28 Q4 24 4 16 Q4 8 12 4Z" stroke="url(#rgGrad2)" stroke-width="2.2" fill="none" stroke-linecap="round"/>
<path d="M12 28 Q26 24 40 28 Q48 32 48 40 Q48 48 40 52 Q26 56 12 52 Q4 48 4 40 Q4 32 12 28Z" stroke="url(#rgGrad2)" stroke-width="2.2" fill="none" stroke-linecap="round"/>
<!-- Regeneration leaf shape in center -->
<path d="M28 12 Q34 20 28 28 Q22 20 28 12Z" fill="url(#rgGrad)" opacity="0.6"/>
<path d="M28 32 Q34 40 28 48 Q22 40 28 32Z" fill="url(#rgGrad)" opacity="0.6"/>
<!-- Nodes -->
<circle cx="12" cy="4" r="3.5" fill="#059669"/>
<circle cx="26" cy="1.5" r="3.5" fill="#059669"/>
<circle cx="40" cy="4" r="3.5" fill="#10B981"/>
<circle cx="48" cy="16" r="3.5" fill="#34D399"/>
<circle cx="40" cy="28" r="3.5" fill="#10B981"/>
<circle cx="26" cy="32" r="3.5" fill="#10B981"/>
<circle cx="12" cy="28" r="3.5" fill="#059669"/>
<circle cx="12" cy="52" r="3.5" fill="#059669"/>
<circle cx="26" cy="55.5" r="3.5" fill="#059669"/>
<circle cx="40" cy="52" r="3.5" fill="#10B981"/>
<circle cx="48" cy="40" r="3.5" fill="#34D399"/>
<!-- Small connecting dots -->
<circle cx="12" cy="16" r="2" fill="#34D399" opacity="0.6"/>
<circle cx="12" cy="40" r="2" fill="#34D399" opacity="0.6"/>
<!-- Cross-bridges -->
<line x1="18" y1="12" x2="34" y2="8" stroke="#10B981" stroke-width="1" opacity="0.4"/>
<line x1="18" y1="44" x2="34" y2="48" stroke="#10B981" stroke-width="1" opacity="0.4"/>
</svg>
