<svg width="1200" height="630" viewBox="0 0 1200 630" fill="none" xmlns="http://www.w3.org/2000/svg">
  <rect width="1200" height="630" fill="#0b1a2e"/>
  <rect x="0" y="0" width="1200" height="630" fill="url(#bgGrad)"/>
  <defs>
    <linearGradient id="bgGrad" x1="0" y1="0" x2="1200" y2="630">
      <stop stopColor="#0b1a2e"/>
      <stop offset="0.5" stopColor="#1a2d4a"/>
      <stop offset="1" stopColor="#0b1a2e"/>
    </linearGradient>
    <linearGradient id="accent" x1="0" y1="0" x2="1" y2="1">
      <stop stopColor="#2563eb"/>
      <stop offset="0.5" stopColor="#6366f1"/>
      <stop offset="1" stopColor="#7c3aed"/>
    </linearGradient>
  </defs>

  <rect x="60" y="60" width="32" height="32" rx="8" fill="url(#accent)"/>
  <path d="M69 80V72l7 4-7 4z" fill="white" fillOpacity="0.3"/>
  <path d="M70.5 78.5V73.5l5 2.5-5 2.5z" fill="white"/>

  <text x="100" y="84" font-family="system-ui, sans-serif" font-size="28" font-weight="bold" fill="white">VIRALPEPS</text>

  <rect x="60" y="110" width="180" height="24" rx="12" fill="#1e3a5f" stroke="#2563eb30"/>
  <text x="150" y="127" font-family="system-ui, sans-serif" font-size="11" font-weight="bold" fill="#22c55e" text-anchor="middle">LIVE UK PRICE COMPARISON</text>

  <text x="60" y="200" font-family="system-ui, sans-serif" font-size="52" font-weight="bold" fill="white">
    Search, compare, save.
  </text>
  <text x="60" y="265" font-family="system-ui, sans-serif" font-size="52" font-weight="bold" fill="url(#accent)">
    Find your next peptide deal.
  </text>

  <text x="60" y="320" font-family="system-ui, sans-serif" font-size="20" fill="#94a3b8">
    Compare live prices on <tspan fill="white" font-weight="bold">37+ peptides</tspan> from <tspan fill="white" font-weight="bold">10 trusted UK suppliers</tspan>.
  </text>

  <rect x="60" y="360" width="480" height="50" rx="10" fill="#ffffff15"/>
  <text x="80" y="392" font-family="system-ui, sans-serif" font-size="16" fill="#64748b">Search peptides (e.g. BPC-157, Tirzepatide)...</text>
  <rect x="470" y="368" width="55" height="34" rx="8" fill="#2563eb"/>
  <text x="497" y="392" font-family="system-ui, sans-serif" font-size="12" font-weight="bold" fill="white" text-anchor="middle">Search</text>

  <circle cx="750" cy="315" r="120" fill="#ffffff05"/>
  <circle cx="750" cy="315" r="90" fill="#ffffff08"/>
  <circle cx="750" cy="315" r="60" fill="#ffffff10"/>
  <text x="750" y="320" font-family="system-ui, sans-serif" font-size="40" font-weight="bold" fill="url(#accent)" text-anchor="middle">VP</text>
</svg>
