<svg xmlns="http://www.w3.org/2000/svg" xmlns:xlink="http://www.w3.org/1999/xlink" id="Layer_2" data-name="Layer 2" viewBox="0 0 214.68 65.36"><defs><style>      .cls-1 {        fill: #00afef;      }      .cls-2 {        fill: #fff;      }      .cls-3 {        fill: url(#linear-gradient);      }    </style><linearGradient id="linear-gradient" x1="9.58" y1="55.78" x2="55.78" y2="9.58" gradientUnits="userSpaceOnUse"><stop offset=".08" stop-color="#2181a9"></stop><stop offset=".28" stop-color="#fff"></stop><stop offset=".56" stop-color="#00afef"></stop><stop offset=".76" stop-color="#c4d5fb"></stop><stop offset="1" stop-color="#2181a9"></stop></linearGradient></defs><g id="_&#x56FE;&#x5C42;_1" data-name="&#x56FE;&#x5C42; 1"><g><path class="cls-2" d="M107.5,24.93c1.09-.72,1.83-1.67,2.22-2.85.34-1.04.52-2.28.52-3.69v-.65c0-1.5-.15-2.78-.45-3.8-.34-1.17-1.01-2.1-1.99-2.77-.92-.63-2.18-1.06-3.85-1.3-1.53-.22-3.56-.34-6.03-.34h-17.75v27.09h5.35v-10.05h13.83l5.28,10.05h5.64l-5.56-10.58c1.15-.27,2.08-.64,2.8-1.12ZM85.51,14.46h11.81c1.9,0,3.43.04,4.55.12,1.25.09,1.89.28,2.2.43.31.15.49.35.59.65.16.48.24,1.18.24,2.08v.65c0,.81-.06,1.47-.18,1.95-.07.29-.21.49-.47.64-.2.13-.71.36-1.88.49-1.01.12-2.44.18-4.23.18h-12.62v-7.19Z"></path><path class="cls-2" d="M133.4,9.54l-15.81,27.09h6.24l3.11-5.7h18.35l3.11,5.7h6.24l-15.8-27.09h-5.43ZM129.76,26.11l6.36-11.12,6.35,11.12h-12.71Z"></path><polygon class="cls-2" points="208.64 9.54 199.68 30.12 190.32 9.54 185.26 9.54 175.85 30.23 165.87 9.54 159.79 9.54 173.11 36.63 178.67 36.63 187.79 16.5 196.9 36.63 202.49 36.63 214.68 9.54 208.64 9.54"></polygon></g><g><path class="cls-1" d="M79.72,56.44v-13.36h8.94c1.3,0,2.35.06,3.15.19s1.4.34,1.81.64c.41.3.69.7.83,1.21s.22,1.14.22,1.89v.35c0,.72-.07,1.33-.22,1.83s-.43.91-.86,1.21-1.03.53-1.83.67c-.8.14-1.85.21-3.16.21h-7.22v5.15h-1.67ZM93,47.02c0-.55-.05-.99-.16-1.32s-.31-.58-.63-.75c-.31-.17-.78-.28-1.4-.34-.62-.05-1.45-.08-2.49-.08h-6.95v5.32h6.95c1.04,0,1.87-.03,2.49-.1s1.09-.19,1.4-.37c.31-.18.52-.43.63-.76.1-.33.16-.75.16-1.26v-.35Z"></path><path class="cls-1" d="M98.77,56.44v-13.36h13.11v1.39h-11.44v4.45h10.96v1.39h-10.96v4.73h11.69v1.39h-13.36Z"></path><path class="cls-1" d="M116.17,56.44v-13.36h8.94c1.3,0,2.36.06,3.15.19s1.4.34,1.81.64c.41.3.69.7.83,1.21s.22,1.14.22,1.89v.35c0,.72-.07,1.33-.22,1.83s-.43.91-.86,1.21-1.03.53-1.83.67c-.8.14-1.85.21-3.16.21h-7.22v5.15h-1.67ZM129.46,47.02c0-.55-.05-.99-.16-1.32s-.31-.58-.63-.75-.78-.28-1.4-.34c-.62-.05-1.45-.08-2.49-.08h-6.95v5.32h6.95c1.04,0,1.87-.03,2.49-.1s1.09-.19,1.4-.37.52-.43.63-.76c.1-.33.16-.75.16-1.26v-.35Z"></path><path class="cls-1" d="M141.06,56.44v-11.96h-6.68v-1.39h15.03v1.39h-6.68v11.96h-1.67Z"></path><path class="cls-1" d="M153.67,56.44v-13.36h1.67v13.36h-1.67Z"></path><path class="cls-1" d="M160.5,56.44v-13.36h9.91c1.3,0,2.38.08,3.22.23s1.5.46,1.97.91c.47.45.8,1.1.99,1.96.19.86.28,1.99.28,3.4v.35c0,1.36-.09,2.47-.28,3.33-.19.86-.52,1.51-.99,1.97-.47.46-1.13.78-1.97.95s-1.91.26-3.22.26h-9.91ZM162.17,55h8.24c1.04,0,1.87-.05,2.5-.15s1.11-.31,1.44-.64.55-.83.67-1.51.17-1.6.17-2.76v-.35c0-.96-.03-1.76-.1-2.38s-.2-1.12-.39-1.48c-.19-.36-.46-.63-.82-.8-.36-.17-.82-.28-1.39-.33s-1.27-.07-2.1-.07h-8.24v10.47Z"></path><path class="cls-1" d="M181.43,56.44v-13.36h13.11v1.39h-11.44v4.45h10.96v1.39h-10.96v4.73h11.69v1.39h-13.36Z"></path><path class="cls-1" d="M213.01,52.58c0-.52-.04-.92-.12-1.22s-.26-.51-.55-.66-.72-.24-1.32-.28c-.6-.04-1.41-.07-2.45-.09l-4.83-.07c-1.19-.02-2.15-.09-2.88-.22s-1.27-.33-1.64-.6c-.37-.27-.62-.64-.74-1.11-.13-.46-.19-1.04-.19-1.74,0-.76.09-1.39.26-1.88.17-.49.48-.88.93-1.16s1.09-.47,1.91-.59c.82-.11,1.89-.17,3.19-.17h3.72c1.18,0,2.17.04,2.96.11s1.41.25,1.88.52.8.7,1,1.27c.2.57.3,1.36.3,2.37h-1.67c0-.78-.07-1.36-.22-1.76-.15-.4-.39-.67-.73-.81-.34-.14-.8-.22-1.37-.23s-1.29-.02-2.14-.02h-3.63c-1.04,0-1.87.02-2.49.06s-1.09.13-1.41.28-.53.38-.64.7-.16.76-.16,1.31c0,.47.04.85.11,1.13s.24.5.51.65c.26.15.67.25,1.22.3.55.06,1.3.09,2.25.1l5.18.07c1.22.02,2.19.09,2.92.21.73.13,1.27.33,1.63.6s.6.65.72,1.13c.12.47.18,1.07.18,1.79,0,.78-.07,1.44-.22,1.97-.15.53-.43.95-.86,1.27s-1.03.55-1.83.69-1.85.21-3.16.21h-4.07c-1.19,0-2.19-.05-2.99-.16s-1.45-.31-1.93-.63c-.48-.32-.82-.79-1.03-1.41s-.31-1.46-.31-2.5h1.67c0,.82.07,1.45.2,1.9s.37.77.7.96c.33.19.8.31,1.4.35.6.04,1.36.06,2.29.06h3.98c1.04,0,1.86-.03,2.46-.1s1.05-.19,1.34-.38.48-.46.56-.81c.08-.35.13-.82.13-1.4Z"></path></g><path class="cls-3" d="M48.1,24.48c1.12.28,1.85.99,2.52,1.9,0,0,0,0,.02.01.02.01.05,0,.06-.02,1.04-2.11.7-4.36-1.93-4.92,0,0,0,0-.01,0,0-.01,0-.03,0-.04,1.53-1.33,2.04-3,1.52-5.01,0,0,0-.02-.01-.02-.02-.02-.04-.01-.06,0-.78.91-1.8,1.42-3.07,1.55-.01,0-.03,0-.03-.01-.01-.02-.01-.04,0-.05,1.2-1.02,1.68-2.63,1.47-4.17,0-.01,0-.02-.01-.03-.02-.02-.05-.02-.07,0-1.29,1.35-3.28,1.83-4.98.96-.01,0-.02-.02-.02-.03,0-.02.01-.04.04-.04,1.88-.19,3.22-1.23,3.65-3.07,0-.02,0-.04-.01-.05-.02-.03-.06-.03-.08,0-.99.83-2.31.83-3.56.59-.73-.14-1.73-.35-2.99-.63-.58-.13-1.12-.21-1.61-.23-.01,0-.02,0-.03-.02,0-.02,0-.03.02-.04,1.15-.57,1.94-1.44,1.97-2.78,0,0,0-.01,0-.02,0-.01-.03-.02-.04,0-.67.49-1.42.8-2.25.94-.95.16-1.9.24-2.83.25-4.94.06-11.21-.41-13.3,5.33-.09.25-.14.38-.14.38,0,0-.01.02-.02.02-.02,0-.03-.01-.03-.03-.2-1.91.41-3.83,2.24-4.64.16-.07.35-.11.5-.2,0,0,.02-.02.02-.03,0-.02-.01-.04-.03-.04-2.78-.1-4.76,1.1-5.95,3.6-.72,1.53-.97,3.21-.73,5.04.05.43.19.77.26,1.15,0,.01,0,.02,0,.03-.01.02-.04.02-.05,0-1.45-1.24-1.67-2.69-.66-4.35,0,0,0-.02,0-.02,0-.01-.02-.02-.03,0-2.5,1.25-2.9,3.92-1.59,6.22.25.44.59.82,1.01,1.16,0,0,0,0,.01.01,0,.02,0,.04-.02.05-1.56.69-2.55,1.86-2.97,3.53-.24.97-.15,2.29.49,3.12,0,.01.02.02.04.02.03,0,.05-.02.05-.05.05-.99.93-1.95,1.72-2.48.01,0,.02,0,.03,0,.02,0,.03.03.02.05-1.87,4.69-3.13,12.22,2.38,15.16,0,0,.01,0,.02,0,.02,0,.03-.02.03-.04-.25-1.38-.24-2.8.04-4.27,0,0,0-.01,0-.01,0,0,.02,0,.02,0,.86,2.31,1.77,4.53,1.82,7.02.03,1.29-.09,2.58-.36,3.85,0,0,0,0,0,.01,0,.04.03.07.07.07.96,0,1.82-1.04,2.21-1.86.5-1.04.69-1.99.41-2.99,0-.02,0-.04.02-.05.02-.01.05,0,.06.01.54.84.82,1.76.83,2.78.02,1.21.04,2.19.06,2.93.08,3.03,1.53,4.73,4.34,5.71.01,0,.03,0,.04,0,.03-.01.04-.05.02-.07-1.69-3.36-1.03-6.72,1.05-9.71,0,0,.02-.01.03,0,.01,0,.02.02.01.03-.42,1.1-.61,2.22-.59,3.37.03,1.38.4,2.64,1.13,3.78,0,.01.02.02.03.03.04.03.1.02.14-.02.11-.16.19-.34.24-.57.32-1.43.41-2.12,1.08-3.07,0,0,.01-.01.02-.01.01,0,.02.01.02.03-.09.87-.05,1.77.13,2.68.4,2.13.64,3.45.71,3.94.16,1.14.24,2.46-.39,3.5,0,.01,0,.03,0,.04,0,.02.04.04.06.03,2.05-.68,3.63-2.32,4.75-4.15.86-1.39,1.42-2.73,1.9-4.19,0,0,.01-.01.02-.01.01,0,.02,0,.02.02.05,1.3.28,2.66-.04,3.95,0,0,0,.01,0,.02,0,.01.03.02.04.01,1.17-.62,2.22-1.37,3.14-2.25,1.45-1.38,2.17-3.08,2.16-5.08-.01-1.59-.22-3.23-.23-4.75,0,0,0-.02,0-.03.01-.02.04-.03.07-.02,1.2.65,2.48,1.11,3.85,1.37.01,0,.03,0,.04,0,.03-.01.05-.05.03-.09-.85-1.98-1.35-4.28-.39-6.31.84-1.76,1.39-3.01,1.38-4.77,0-.01,0-.03.02-.03.02-.01.05,0,.06.01.71,1,1.08,2.12,1.13,3.38,0,.01,0,.02.02.03.02,0,.04,0,.04-.01,1.01-1.91,1.17-3.87.48-5.89-.79-2.33-2.25-4.12-2.79-6.28,0-.01,0-.03,0-.04.01-.04.05-.07.1-.06ZM41.7,16.32c1.11.22,2.21.28,3.28.19,0,0,.02,0,.02,0,.01.01.02.03,0,.04-.31.39-.71.69-1.2.91-1.74.78-3.53.88-5.35.29-.02,0-.03-.02-.03-.04,0-.02.02-.04.04-.03.73-.02,1.47-.17,2.23-.44,0,0,.01,0,.01-.01,0-.01,0-.02-.01-.03-.95-.36-1.95-.56-2.99-.62-1.88-.1-3.42.71-4.46,2.24,0,0-.01,0-.02,0-.01,0-.02-.01-.02-.02.48-1.95,1.75-3.22,3.87-3.19,1.57.02,2.82.35,4.62.71ZM30.17,14.36c.44-.1,1.46-.3,3.05-.61.17-.03.35-.09.51-.17.01,0,.02-.02.02-.03,0-.02-.01-.04-.04-.04-.49-.02-1.18-.09-2.08-.18-1.09-.12-2.14-.11-3.14.03-.02,0-.03,0-.04-.02-.01-.02,0-.05.01-.06.67-.47,1.3-.58,2.15-.64,1.02-.07,3.02.05,4.54-.31.65-.15,1.21-.45,1.68-.91,0,0,.02-.01.03,0,.02,0,.03.02.03.04-.13.84-.68,1.43-1.35,1.9-.01,0-.02.02-.02.04,0,.02.02.04.05.04,1.05-.1,2.1-.25,3.03-.7.01,0,.03,0,.04,0,.03.01.04.04.02.07-.7,1.48-2.8,1.92-4.28,2.08-1.86.2-2.82.3-2.89.31-.94.1-1.77.3-2.47.62-1.82.81-1.49,2.61-.89,4.17,0,0,0,.02,0,.02,0,.01-.03.01-.04,0-.52-.53-.93-1.1-1.23-1.71-1.13-2.36,1.57-3.56,3.31-3.94ZM20.62,13.16s.01,0,.02,0c0,0,.01.01,0,.02-.05.1-.13.27-.23.53-.79,1.95.06,3.8,1.53,5.09,0,0,.01.02,0,.03,0,.01-.02.02-.03.01-1.01-.41-1.87-1.11-2.26-2.12-.5-1.32-.03-2.64.96-3.55ZM20.97,30.13c-.37.78-.91,1.56-1.04,2.41-.11.75-.06,1.48.16,2.19,0,.01,0,.03-.01.04-.01.01-.04.01-.05,0-.65-.76-.92-1.67-.82-2.74,0,0,0-.01,0-.01,0,0-.02-.01-.03,0-1.49,1.09-1.3,3.06-1.27,4.76,0,0,0,.02-.01.02-.01,0-.02,0-.03-.01-.24-.83-.43-1.64-.57-2.42-.53-3,.2-5.61,2.18-7.85.62-.7,1.21-1.3,1.78-1.81.01,0,.03,0,.04,0h0s.01.02,0,.04c-1.3,1.68-3.15,4.38-2.79,6.56,0,0,0,.02.01.03.02.02.05.02.06,0,1.09-1.07,2.3-2.09,3.04-3.49,0-.01.02-.02.03-.02.01,0,.02.02.02.03-.1.74-.33,1.5-.71,2.3ZM26.47,47.32s-.01.02-.02.02h0s0,0,0,0c-.01,0-.02-.01-.02-.02.13-1.44-.44-2.67-1.24-3.87-1.88-2.84-4.16-5.75-2.28-9.3,0,0,.01-.01.02-.02.02,0,.04,0,.04.02.04.16,0,.37.04.58.17,1.11.6,2.13,1.29,3.08.13.17.5.69,1.13,1.53.6.81.92,1.73.96,2.74,0,.01,0,.02-.02.02-.01,0-.02,0-.02-.02-.39-1.16-1.33-2.02-2.32-2.75-.01,0-.03-.01-.04,0-.02,0-.03.03-.02.06.39,1,.83,1.86,1.3,2.58.45.68.74,1.19.88,1.53.49,1.21.6,2.49.32,3.83ZM34.03,42.5s-.02,0-.03,0c-.02,0-.04-.02-.04-.04.04-.87-.32-1.47-1.08-1.8-.01,0-.02,0-.03,0-.02.01-.02.03-.01.05.66,1.04.56,1.99-.32,2.84-.01.01-.02.02-.04.01-.03,0-.04-.03-.04-.05.11-1.31-1.56-1.79-2.71-2.26-.75-.31-1.11-.87-1.07-1.68.02-.45.1-1.03.48-1.34.67-.55,1.36-.96,2.33-1.02.92-.06,1.75-.07,2.5-.02,1.01.07,1.88.47,2.61,1.21.06.06.1.12.12.2.21.59.25,1.11.14,1.54-.23.86-.77,1.05-1.54,1.22-.66.15-.8.76-1.28,1.13ZM40.68,40.07c-.76,1.2-.77,2.67-.55,4.09.12.78.22,1.63.3,2.55.11,1.23-.05,2.42-.46,3.57,0,.02-.02.02-.04.02-.02,0-.03-.02-.03-.04.05-.46.04-.99-.04-1.59-.12-.87-.32-1.8-.76-2.55,0-.01-.02-.02-.03-.02-.02,0-.04.01-.05.03-.36,2.09-1.11,4.03-2.25,5.83-.37.58-.85,1.09-1.44,1.52-.02.01-.04.01-.06,0-.02-.02-.02-.05,0-.07,1.32-1.75,1.9-3.74,1.72-5.98-.05-.7-.1-1.4-.14-2.1-.06-1.02.25-1.9.94-2.63,0,0,.01,0,.02,0,.01,0,.02.01.02.03-.09.55-.13.97-.12,1.27.04.85.13,1.71.28,2.6,0,.02.01.03.03.04.02.01.05,0,.07-.02.6-1.22.83-2.47,1.1-3.89.2-1.06.69-1.96,1.45-2.71.01-.01.04-.02.05,0,.02.01.02.04,0,.05ZM44.62,23.46s0,0-.02,0c-.01,0-.02-.01-.02-.02,0-.02.02-.16.07-.43.14-.84-.09-1.49-.67-1.94-.89-.68-2.22-.4-3.08.26-.02.02-.03.05-.02.08l.45.79s0,.03,0,.04c0,.02-.03.03-.06.03l-.72-.26s-.03,0-.04,0c-.03.01-.05.04-.04.08.2.58.35,1.19.43,1.82.07.51.18,1.04.33,1.59.03.09.04.19.05.28.01.17.03.5.04.96,0,.12.09.35.24.7.29.65.34,1.25.13,1.94-.21.68-.57,1.29-1.09,1.84-.19.2-.36.34-.5.42-.17.09-.38.04-.48-.12-.39-.58-.85-1.08-1.52-1.3-.01,0-.03,0-.03,0-.01.01-.01.03,0,.05,1.06,1.09,1.79,2.37.03,3.33-.81.44-1.73.65-2.77.64-.03,0-.05,0-.07.02,0,0-.01.01-.02.02,0,.02,0,.04.03.05,1.29.37,2.32.07,3.57-.26.2-.05.35-.04.48.04.14.09.2.27.16.45-.41,1.69-2.71,1.46-3.84.82-.02-.01-.05-.01-.07,0-.02.02-.03.06,0,.09.35.4.79.67,1.32.81.41.11.86.15,1.35.12.01,0,.02,0,.03.01.01.01,0,.03,0,.04-.31.24-.6.41-.87.51-1.37.48-3.33-.66-4.12-1.83-.12-.18-.18-.45-.17-.81.02-.5.24-.84.68-1.01,1.04-.42,1.56-.63,1.56-.63.8-.38.79-1.22.44-1.89,0,0-.01-.01-.02-.02-.02,0-.04,0-.04.02-.13.34-.4.57-.79.68-1.43.42-2.86.43-4.3.01-.4-.12-.68-.35-.83-.71,0,0,0-.01-.01-.01-.01,0-.03,0-.04.01-.39.76-.34,1.64.57,1.97.38.14.86.33,1.44.56.44.18.66.5.66.98,0,.28-.01.49-.05.63-.01.05-.03.1-.06.15-.73,1.17-2.64,2.31-4.05,1.93-.3-.08-.63-.26-.96-.53-.01,0-.02-.02-.02-.03,0-.02.02-.04.04-.04,1.01.05,2.05-.16,2.67-.98.01-.01.01-.03,0-.05-.01-.02-.04-.03-.06-.01-1.13.66-3.17.9-3.81-.59-.2-.47.03-.83.55-.69,1.16.3,2.39.71,3.59.24.01,0,.02-.02.02-.03,0-.02-.02-.03-.04-.03-.97.04-1.88-.15-2.73-.58-.9-.45-1.48-1.13-.98-2.17.2-.42.5-.82.9-1.18.02-.01.02-.04.01-.06-.01-.03-.04-.04-.07-.03-.73.28-1.05.72-1.57,1.36-.08.1-.22.13-.34.08-.19-.08-.36-.21-.52-.39-.99-1.11-1.64-2.47-.97-3.89.2-.42.28-.89.25-1.41,0-.14,0-.3.06-.48.16-.58.28-1.2.36-1.85.03-.24.16-.76.39-1.57,0,0,0-.01,0-.02,0-.02-.02-.03-.04-.03l-.69.16s-.03,0-.04,0c-.03-.02-.04-.05-.02-.08l.33-.58s.01-.1-.03-.13c-.99-.75-2.35-1.06-3.34-.21-.62.53-.68,1.47-.44,2.21,0,.02,0,.04-.01.04-.02,0-.04,0-.05-.01-.25-.36-.43-.74-.55-1.12-.62-2.07,1.7-3.28,3.38-2.54.02,0,.04,0,.06,0,.03-.02.03-.05.01-.08l-.5-.68s0-.01,0-.02c0-.02.02-.03.03-.03.93.09,1.75.46,2.44,1.1.01,0,.02.01.04.01.02,0,.04-.03.04-.05-.03-.14-.03-.25-.01-.34,0,0,0-.02.01-.03.02-.02.05-.02.07,0,.27.28.53.46.77.54,1.64.56,2.74.76,3.63,1.89,0,0,.02.01.03,0,.01,0,.02-.02.02-.03l-.28-1.2s0,0,0,0c0,0,0,0,0,0,1.18-.05,2.12.39,2.82,1.3,0,0,0,0,0,.01.02.02.06.01.08-.01.72-.92,1.65-1.35,2.79-1.29,0,0,0,0,0,0,.02,0,.03.02.03.04l-.27,1.13s0,.03.02.04c.02.01.04,0,.06,0,.76-1.04,1.88-1.27,3.43-1.8.41-.14.74-.35.97-.63.01-.01.03-.02.04-.01.02,0,.04.03.03.05-.02.06-.02.1-.02.13,0,.01,0,.02.02.03.03.03.07.04.11.01.6-.5,1.32-.79,2.16-.87,0,0,.02,0,.02,0,.01.01.02.03,0,.05l-.47.65s-.02.05,0,.07c.02.03.06.05.09.03.96-.44,2.19-.21,2.91.56.89.95.52,2.12-.12,3.13ZM31.45,24.57c-.22.42-.57.76-1.04.99-.07.03-.15.02-.21-.03-1.33-1.19-2.76-.77-4.31-.43-.43.1-.79.03-1.08-.18-.01,0-.03-.01-.04,0-.03,0-.05.04-.04.07.18.64.79.72,1.27,1.1.73.57,1.65.65,2.68.83.36.06.57.26.63.58.11.62.21,1.16.31,1.62.03.13.07.25.12.35,0,0,.01.01.02.01.01,0,.03,0,.03-.02-.01-1.04.07-2.23.69-2.91.52-.57.88-1.21,1.07-1.93,0-.02,0-.04-.02-.05-.02-.01-.05,0-.07.02ZM29.22,26.54c-.5.1-.98.03-1.46-.2-.09-.04-.13-.15-.09-.24.09-.23.22-.38.4-.45,0,0,.02,0,.02,0,.04,0,.06.03.06.07,0,.63.7.83,1.09.37.02-.03.05-.04.08-.05.08-.02.16.04.17.12.04.21-.06.34-.28.39ZM39.67,25.11c-1.55-.34-2.97-.75-4.29.43-.06.05-.14.06-.21.03-.47-.24-.81-.57-1.03-.99-.01-.02-.03-.03-.05-.02-.03,0-.04.03-.03.06.2.71.55,1.35,1.07,1.92.62.68.69,1.87.68,2.9,0,0,0,.02.01.02.01,0,.03,0,.03-.01.05-.1.09-.21.12-.35.1-.46.2-.99.31-1.62.06-.32.27-.51.63-.58,1.03-.18,1.94-.26,2.67-.83.48-.38,1.08-.46,1.26-1.09,0-.01,0-.03,0-.04-.02-.02-.05-.03-.07-.01-.29.22-.65.28-1.08.18ZM37.82,26.34c-.48.24-.97.3-1.47.2-.23-.05-.32-.18-.28-.39,0-.03.02-.06.05-.09.06-.05.16-.04.21.02.39.47,1.11.27,1.1-.37,0,0,0-.02,0-.02.01-.03.05-.05.08-.04.17.07.31.22.4.45.04.09,0,.19-.09.24ZM32.68,0C14.66,0,0,14.66,0,32.68s14.66,32.68,32.68,32.68,32.68-14.66,32.68-32.68S50.7,0,32.68,0ZM32.68,63.08c-16.76,0-30.4-13.64-30.4-30.4S15.92,2.28,32.68,2.28s30.4,13.64,30.4,30.4-13.64,30.4-30.4,30.4Z"></path></g></svg>